<svg xmlns="http://www.w3.org/2000/svg" viewBox="0 0 12.81 12.8"><defs><style>.cls-1{fill:#fff;}</style></defs><title>diamond</title><g id="Layer_2" data-name="Layer 2"><g id="Layer_1-2" data-name="Layer 1"><path class="cls-1" d="M0,12.81V0H12.82v12.8ZM12.1,4.43l0-.05L10.25,1.65a.08.08,0,0,0-.07,0H2.64a.08.08,0,0,0-.08,0L.73,4.4l0,0,5.7,7Z" transform="translate(-0.01 -0.01)"/><path d="M12.1,4.43l-5.7,7-5.7-7,0,0L2.57,1.65a.08.08,0,0,1,.08,0h7.53a.08.08,0,0,1,.07,0l1.82,2.73Zm-7.52.38L6.4,9.66h0L8.23,4.81Zm6.18,0H9.12s0,0,0,0L7.67,8.59v0h0ZM5.15,8.63h0v0L5,8.15,3.74,4.84s0,0,0,0H2.05Zm0-6.22H3.06a.06.06,0,0,0-.06,0L2,4,2,4H3.79l.05,0,1-1.18ZM10.86,4l0,0-1-1.55,0,0H7.67l0,0L9,4A.08.08,0,0,0,9,4h1.82ZM7.95,4h0L6.64,2.43l0,0H6.23a.07.07,0,0,0-.06,0L5.07,3.76,4.86,4Z" transform="translate(-0.01 -0.01)"/><path class="cls-1" d="M4.59,4.81H8.23L6.41,9.65h0Z" transform="translate(-0.01 -0.01)"/><path class="cls-1" d="M10.77,4.81,7.66,8.63h0v0l1.4-3.74s0,0,0,0h1.65Z" transform="translate(-0.01 -0.01)"/><path class="cls-1" d="M5.15,8.63,2.05,4.81H3.7s0,0,0,0L5,8.15l.16.44v0Z" transform="translate(-0.01 -0.01)"/><path class="cls-1" d="M5.15,2.41l-.33.39L3.84,4,3.79,4H2L2,4,3,2.44a.06.06,0,0,1,.06,0h2.1Z" transform="translate(-0.01 -0.01)"/><path class="cls-1" d="M10.86,4H9A.08.08,0,0,1,9,4L7.68,2.43l0,0h2.1l0,0,1,1.55Z" transform="translate(-0.01 -0.01)"/><path class="cls-1" d="M7.95,4H4.86l.2-.25,1.1-1.32a.07.07,0,0,1,.06,0h.36l0,0L7.94,4Z" transform="translate(-0.01 -0.01)"/></g></g></svg>